<?xml version="1.0" standalone="no"?>
<!DOCTYPE svg PUBLIC "-//W3C//DTD SVG 20010904//EN"
 "http://www.w3.org/TR/2001/REC-SVG-20010904/DTD/svg10.dtd">
<svg version="1.0" xmlns="http://www.w3.org/2000/svg"
 width="218.000000pt" height="218.000000pt" viewBox="0 0 218.000000 218.000000"
 preserveAspectRatio="xMidYMid meet">
<metadata>
Created by potrace 1.14, written by Peter Selinger 2001-2017
</metadata>
<g transform="translate(0.000000,218.000000) scale(0.100000,-0.100000)"
fill="#000000" stroke="none">
<path d="M1191 2099 c-24 -5 -54 -17 -65 -28 -18 -17 -61 -118 -61 -143 0 -3
-3 -9 -7 -13 -3 -4 -4 -17 -2 -30 5 -29 -10 -39 -52 -37 -83 6 -96 -72 -24
-143 38 -37 40 -42 40 -102 0 -56 -3 -66 -27 -86 -31 -26 -129 -117 -181 -168
-21 -20 -48 -52 -62 -72 -26 -38 -31 -41 -92 -51 -22 -4 -45 -17 -56 -31 -10
-13 -40 -40 -66 -60 -118 -90 -154 -165 -171 -353 -6 -60 -15 -85 -78 -223
-25 -52 -40 -104 -53 -173 -3 -16 -10 -40 -15 -53 -9 -26 -23 -114 -22 -148 2
-90 8 -111 39 -143 l32 -32 167 2 166 3 -81 84 -81 84 7 46 c4 25 8 53 9 62 2
9 17 43 33 75 38 76 75 170 103 263 l22 74 23 -44 c13 -24 23 -58 24 -76 0
-17 5 -44 11 -60 28 -75 51 -276 53 -470 l0 -43 453 0 c528 0 489 -10 448 109
-14 42 -19 69 -12 64 7 -4 35 -22 64 -40 29 -18 56 -33 61 -33 4 0 27 -14 50
-31 35 -25 47 -29 78 -23 32 6 39 13 62 63 22 47 26 70 26 146 0 112 -9 186
-34 295 -11 47 -22 91 -23 98 -2 8 -8 17 -13 20 -10 8 -9 4 -24 97 -6 37 -16
77 -22 89 -7 12 -13 58 -14 102 -3 122 -33 172 -123 202 -19 7 -47 12 -62 12
-16 0 -29 5 -29 11 0 6 -33 48 -72 92 -82 93 -107 117 -120 117 -4 0 -8 11 -8
25 0 35 77 138 97 131 9 -4 33 8 59 29 l43 36 -21 36 c-24 40 -27 121 -8 194
13 46 9 70 -22 141 -19 45 -23 48 -75 59 -30 7 -60 18 -67 24 -35 35 -122 44
-225 24z"/>
</g>
</svg>
